<svg width="449" height="500" viewBox="0 0 449 500" fill="none" xmlns="http://www.w3.org/2000/svg">
<path d="M306.42 124.5C295.21 147.77 274.81 163.66 251.68 169.89C242.11 147.92 241.81 122.08 253.02 98.7899C264.24 75.4999 284.64 59.6099 307.78 53.3899C317.32 75.3599 317.63 101.21 306.42 124.5Z" fill="white"/>
<path d="M355.66 227.49C330.47 233.24 305.33 227.19 286.05 212.99C297.26 191.82 317.27 175.46 342.48 169.71C367.68 163.96 392.83 170 412.11 184.22C400.88 205.38 380.87 221.74 355.66 227.49Z" fill="white"/>
<path d="M305.84 330.19C285.64 314.08 274.69 290.65 273.77 266.73C297.31 262.29 322.58 267.74 342.79 283.86C363 299.98 373.95 323.41 374.86 347.35C351.31 351.76 326.05 346.31 305.84 330.2V330.19Z" fill="white"/>
<path d="M195.21 98.7899C206.42 122.06 206.12 147.93 196.57 169.88C173.43 163.66 153.03 147.79 141.82 124.5C130.6 101.21 130.9 75.3499 140.47 53.3799C163.6 59.6199 184 75.4899 195.21 98.7799V98.7899Z" fill="white"/>
<path d="M105.76 169.71C130.95 175.46 150.98 191.82 162.19 212.97C142.9 227.18 117.78 233.24 92.57 227.48C67.37 221.73 47.34 205.37 36.13 184.19C55.43 170 80.56 163.95 105.76 169.7V169.71Z" fill="white"/>
<path d="M105.44 283.86C125.64 267.75 150.92 262.29 174.45 266.72C173.54 290.66 162.6 314.08 142.39 330.2C122.18 346.32 96.9 351.78 73.36 347.34C74.3 323.4 85.23 299.98 105.44 283.87V283.86Z" fill="white"/>
<path d="M209.3 32.4299C209.3 19.5099 215.05 7.92986 224.11 0.109863C233.18 7.92986 238.93 19.5099 238.93 32.4299C238.93 45.3499 233.18 56.9399 224.11 64.7599C215.04 56.9299 209.3 45.3599 209.3 32.4299Z" fill="white"/>
<path d="M60.49 118.37C50.39 110.32 44.92 98.5998 44.46 86.6398C56.23 84.4198 68.86 87.1498 78.97 95.1998C89.08 103.26 94.55 114.97 95.01 126.94C83.24 129.15 70.6 126.42 60.5 118.36L60.49 118.37Z" fill="white"/>
<path d="M34.9 288.29C22.31 291.16 9.72997 288.14 0.0899658 281.04C5.68997 270.45 15.7 262.28 28.3 259.4C40.9 256.52 53.47 259.55 63.12 266.65C57.51 277.23 47.5 285.41 34.9 288.28V288.29Z" fill="white"/>
<path d="M151.8 414.24C146.2 425.88 135.99 433.82 124.43 436.93C119.65 425.95 119.49 413.02 125.1 401.38C130.71 389.73 140.91 381.79 152.48 378.68C157.25 389.67 157.41 402.59 151.8 414.23V414.24Z" fill="white"/>
<path d="M323.15 401.38C328.76 413.02 328.61 425.95 323.83 436.93C312.26 433.82 302.06 425.89 296.45 414.24C290.84 402.6 290.99 389.67 295.77 378.68C307.34 381.8 317.53 389.73 323.14 401.38H323.15Z" fill="white"/>
<path d="M419.93 259.38C432.52 262.25 442.54 270.43 448.15 281.01C438.51 288.12 425.94 291.14 413.34 288.27C400.74 285.4 390.72 277.22 385.12 266.63C394.77 259.53 407.33 256.51 419.93 259.38Z" fill="white"/>
<path d="M369.25 95.1798C379.35 87.1298 391.99 84.3898 403.75 86.5998C403.3 98.5698 397.83 110.28 387.72 118.34C377.62 126.4 364.98 129.13 353.2 126.91C353.67 114.94 359.13 103.23 369.24 95.1698L369.25 95.1798Z" fill="white"/>
<path d="M278.03 499.23L170.2 499.24C191.58 498.76 208.82 481.52 209.29 460.14H209.3V226.97C209.3 214.05 215.05 202.47 224.11 194.65C233.19 202.47 238.93 214.05 238.93 226.97V460.14H238.94C239.41 481.52 256.65 498.76 278.03 499.23Z" fill="white"/>
</svg>
